<svg xmlns="http://www.w3.org/2000/svg" width="138" height="175" viewBox="0 0 138 175">
  <g fill="none" fill-rule="evenodd">
    <g fill-rule="nonzero" transform="translate(22.39 50.924)">
      <g fill="#FFD3AE" transform="translate(2.442 2.425)">
        <ellipse cx="11.358" cy="11.316" rx="11.358" ry="11.276"/>
        <ellipse cx="76.979" cy="11.316" rx="11.358" ry="11.276"/>
      </g>
      <g fill="#333333">
        <path d="M13.8 27.4422633C6.18761062 27.4422633 0 21.2990762 0 13.7413395 0 6.18360277 6.18761062.0404157044 13.8.0404157044 21.4123894.0404157044 27.6 6.18360277 27.6 13.7413395 27.6 21.2990762 21.4123894 27.4422633 13.8 27.4422633zM13.8 4.89030023C8.87433628 4.89030023 4.88495575 8.85103926 4.88495575 13.7413395 4.88495575 18.6316397 8.87433628 22.5923788 13.8 22.5923788 18.7256637 22.5923788 22.7150442 18.6316397 22.7150442 13.7413395 22.7150442 8.85103926 18.7256637 4.89030023 13.8 4.89030023zM79.4212389 27.4422633C71.8088496 27.4422633 65.6212389 21.2990762 65.6212389 13.7413395 65.6212389 6.18360277 71.8088496.0404157044 79.4212389.0404157044 87.0336283.0404157044 93.2212389 6.18360277 93.2212389 13.7413395 93.2212389 21.2990762 86.9929204 27.4422633 79.4212389 27.4422633zM79.4212389 4.89030023C74.4955752 4.89030023 70.5061947 8.85103926 70.5061947 13.7413395 70.5061947 18.6316397 74.4955752 22.5923788 79.4212389 22.5923788 84.3469027 22.5923788 88.3362832 18.6316397 88.3362832 13.7413395 88.3362832 8.85103926 84.3061947 4.89030023 79.4212389 4.89030023z"/>
      </g>
    </g>
    <path fill="#A5CDEF" fill-rule="nonzero" d="M89.1097345,103.464203 C89.1911504,103.464203 89.2725664,103.504619 89.3539823,103.504619 C93.6283186,104.515012 97.5769912,106.293303 101.077876,108.677829 C110.60354,115.103926 116.872566,125.975751 116.872566,138.262125 L116.872566,172.575058 L97.739823,172.575058 L40.300885,172.575058 L21.1681416,172.575058 L21.1681416,138.262125 C21.1681416,125.975751 27.3964602,115.103926 36.9221239,108.677829 C40.4230088,106.293303 44.4123894,104.515012 48.6460177,103.504619 C48.7274336,103.504619 48.8088496,103.464203 48.8902655,103.464203"/>
    <path fill="#FFE2CC" fill-rule="nonzero" d="M40.300885 122.459584L40.300885 172.575058 21.1681416 172.575058 21.1681416 138.262125C21.1681416 125.975751 27.3964602 115.103926 36.9221239 108.677829 39.079646 112.800231 40.300885 117.488453 40.300885 122.459584zM116.831858 138.262125L116.831858 172.575058 97.699115 172.575058 97.699115 122.459584C97.699115 117.488453 98.920354 112.800231 101.077876 108.677829 110.60354 115.103926 116.831858 125.975751 116.831858 138.262125z"/>
    <path fill="#FFD3AE" fill-rule="nonzero" d="M89.3132743,103.504619 L89.3132743,109.081986 C89.3132743,120.236721 80.1946903,129.249423 69,129.249423 C57.8053097,129.249423 48.6867257,120.196305 48.6867257,109.081986 L48.6867257,103.504619 C48.7681416,103.504619 48.8495575,103.464203 48.9309735,103.464203 C54.6707965,107.303695 61.5911504,109.526559 69.040708,109.526559 C76.4902655,109.526559 83.4106195,107.303695 89.1504425,103.464203 C89.1504425,103.464203 89.2318584,103.504619 89.3132743,103.504619 Z"/>
    <path fill="#333333" fill-rule="nonzero" d="M88.7026549,103.706697 C85.9752212,108.879908 81.9451327,113.325635 77.1415929,116.639723 C77.060177,116.680139 76.9787611,116.76097 76.8973451,116.801386 C71.1575221,120.640878 64.2371681,122.863741 56.7876106,122.863741 C54.1415929,122.863741 54.2230088,119.913395 51.739823,119.387991 C51.4548673,118.094688 48.6460177,116.356813 48.6460177,114.982679 L48.6460177,103.504619 C48.7274336,103.504619 48.8088496,103.464203 48.8902655,103.464203 C54.6300885,107.303695 61.5504425,109.526559 69,109.526559 C76.2867257,109.526559 83.0442478,107.384527 88.7026549,103.706697 Z" opacity=".44"/>
    <path fill="#FFE2CC" fill-rule="nonzero" d="M89.1097345,103.464203 C83.3699115,107.303695 76.4495575,109.526559 69,109.526559 C61.5504425,109.526559 54.6300885,107.303695 48.8902655,103.464203 C48.8088496,103.423788 48.7274336,103.342956 48.6460177,103.30254 C39.1610619,96.8764434 32.9327434,86.0450346 32.9327434,73.7586605 L32.9327434,64.665127 L32.9327434,43.8510393 C32.9327434,24.0877598 49.0530973,8.08314088 68.959292,8.08314088 C88.8654867,8.08314088 104.985841,24.0877598 104.985841,43.8510393 L104.985841,64.665127 L104.985841,73.7586605 C104.985841,86.0450346 98.7575221,96.8360277 89.2725664,103.30254 C89.2318584,103.342956 89.1504425,103.383372 89.1097345,103.464203 Z"/>
    <g fill-rule="nonzero" transform="translate(66.354 13.741)">
      <path fill="#333333" d="M2.6460177,2.42494226 C4.51858407,2.42494226 6.39115044,2.62702079 8.14159292,2.95034642"/>
      <path fill="#FFFFFF" d="M8.14159292,5.37528868 C7.97876106,5.37528868 7.8159292,5.37528868 7.65309735,5.33487298 C6.02477876,5.01154734 4.31504425,4.84988453 2.6460177,4.84988453 C1.30265487,4.84988453 0.203539823,3.75866051 0.203539823,2.42494226 C0.203539823,1.09122402 1.30265487,-7.10542736e-15 2.6460177,-7.10542736e-15 C4.64070796,-7.10542736e-15 6.67610619,0.202078522 8.6300885,0.606235566 C9.93274336,0.889145497 10.8283186,2.14203233 10.5433628,3.47575058 C10.299115,4.6073903 9.28141593,5.37528868 8.14159292,5.37528868 Z"/>
    </g>
    <path fill="#333333" fill-rule="nonzero" d="M69,131.714781 C56.4619469,131.714781 46.2442478,121.570439 46.2442478,109.122402 L46.2442478,103.342956 L51.1292035,103.342956 L51.1292035,109.122402 C51.1292035,118.903002 59.1486726,126.864896 69,126.864896 C78.8513274,126.864896 86.8707965,118.903002 86.8707965,109.122402 L86.8707965,103.342956 L91.7557522,103.342956 L91.7557522,109.122402 C91.7557522,121.570439 81.5380531,131.714781 69,131.714781 Z"/>
    <g fill="#333333" fill-rule="nonzero" transform="translate(53.327 67.898)">
      <path d="M2.80884956 5.01154734C2.15752212 5.01154734 1.54690265 4.76905312 1.09911504 4.28406467.651327434 3.83949192.366371681 3.19284065.366371681 2.58660508.366371681 1.98036952.610619469 1.33371824 1.09911504.889145497 1.66902655.323325635 2.52389381.0808314088 3.29734513.242494226 3.46017699.282909931 3.62300885.323325635 3.74513274.363741339 3.9079646.404157044 4.0300885.484988453 4.15221239.606235566 4.27433628.687066975 4.39646018.808314088 4.51858407.929561201 4.64070796 1.05080831 4.72212389 1.17205543 4.84424779 1.29330254 4.96637168 1.41454965 5.00707965 1.57621247 5.08849558 1.69745958 5.12920354 1.8591224 5.21061947 1.98036952 5.21061947 2.14203233 5.25132743 2.30369515 5.25132743 2.46535797 5.25132743 2.62702079 5.25132743 2.7886836 5.25132743 2.95034642 5.21061947 3.11200924 5.1699115 3.27367206 5.12920354 3.43533487 5.08849558 3.55658199 5.04778761 3.6778291 4.96637168 3.83949192 4.84424779 3.96073903 4.76283186 4.08198614 4.64070796 4.20323326 4.51858407 4.32448037 4.07079646 4.76905312 3.46017699 5.01154734 2.80884956 5.01154734zM30.4902655 5.01154734C30.3274336 5.01154734 30.1646018 5.01154734 30.0017699 4.97113164 29.8389381 4.93071594 29.6761062 4.89030023 29.5539823 4.80946882 29.3911504 4.76905312 29.2690265 4.68822171 29.1469027 4.5669746 29.0247788 4.48614319 28.9026549 4.36489607 28.780531 4.28406467 28.6584071 4.16281755 28.5769912 4.04157044 28.4548673 3.92032333 28.3734513 3.79907621 28.2920354 3.63741339 28.2106195 3.51616628 28.1699115 3.35450346 28.0884956 3.23325635 28.0884956 3.07159353 28.0477876 2.90993072 28.0477876 2.7482679 28.0477876 2.58660508 28.0477876 2.42494226 28.0477876 2.26327945 28.0884956 2.10161663 28.1292035 1.93995381 28.1699115 1.77829099 28.2106195 1.65704388 28.2513274 1.53579677 28.3327434 1.37413395 28.4548673 1.25288684 28.5362832 1.13163972 28.6584071 1.01039261 28.780531.889145497 28.9026549.767898383 29.0247788.687066975 29.1469027.565819861 29.2690265.484988453 29.4318584.404157044 29.5539823.323325635 29.7168142.282909931 29.8389381.202078522 30.0017699.202078522 30.7752212.0404157044 31.6300885.282909931 32.2.848729792 32.3221239.969976905 32.4035398 1.09122402 32.5256637 1.21247113 32.6477876 1.33371824 32.6884956 1.49538106 32.7292035 1.61662818 32.7699115 1.73787529 32.8513274 1.89953811 32.8513274 2.06120092 32.8920354 2.22286374 32.8920354 2.38452656 32.8920354 2.54618938 32.8920354 2.70785219 32.8920354 2.86951501 32.8513274 3.03117783 32.8106195 3.19284065 32.7699115 3.35450346 32.7292035 3.47575058 32.6884956 3.59699769 32.6070796 3.75866051 32.5256637 3.87990762 32.4442478 4.00115473 32.3221239 4.12240185 32.2 4.24364896 31.7522124 4.76905312 31.1415929 5.01154734 30.4902655 5.01154734z"/>
    </g>
    <g fill="#333333" fill-rule="nonzero" transform="translate(47.221 61.836)">
      <path d="M18.9699115 16.5704388C17.6265487 16.5704388 16.5274336 15.4792148 16.5274336 14.1454965L16.5274336 7.31524249C16.5274336 6.02193995 15.4690265 4.97113164 14.1663717 4.97113164L2.52389381 4.97113164C1.18053097 4.97113164.0814159292 3.87990762.0814159292 2.54618938.0814159292 1.21247113 1.18053097.121247113 2.52389381.121247113L14.1663717.121247113C18.1557522.121247113 21.4123894 3.35450346 21.4123894 7.31524249L21.4123894 14.1454965C21.4123894 15.4792148 20.3132743 16.5704388 18.9699115 16.5704388zM41.0336283 4.97113164L31.2637168 4.97113164C29.920354 4.97113164 28.8212389 3.87990762 28.8212389 2.54618938 28.8212389 1.21247113 29.920354.121247113 31.2637168.121247113L41.0336283.121247113C42.3769912.121247113 43.4761062 1.21247113 43.4761062 2.54618938 43.4761062 3.87990762 42.3769912 4.97113164 41.0336283 4.97113164z"/>
    </g>
    <path fill="#B77E00" fill-rule="nonzero" stroke="#333333" stroke-width="4.05" d="M32.9734513,64.665127 L48.6867257,86.0854503 C48.6867257,86.0854503 65.7433628,79.8210162 89.5575221,86.0854503 L105.026549,66.8071594 C105.026549,66.8071594 111.132743,106.293303 69,109.526559 C69,109.526559 46.1628319,110.051963 36.1893805,88.591224 C36.1893805,88.591224 32.7699115,80.2251732 32.9734513,73.7586605 L32.9734513,64.665127" stroke-linecap="round" stroke-linejoin="round"/>
    <path fill="#A5CDEF" fill-rule="nonzero" stroke="#333333" stroke-width="4.05" d="M21.1681416 152.771363L40.300885 152.771363C40.300885 152.771363 42.499115 114.942263 36.9221239 108.718245 36.9221239 108.677829 18.7256637 120.196305 21.1681416 152.771363zM116.872566 140.646651L97.739823 140.646651C97.739823 140.646651 95.5415929 114.942263 101.118584 108.718245 101.077876 108.677829 117.076106 116.76097 116.872566 140.646651z"/>
    <path fill="#333333" fill-rule="nonzero" d="M100.141593,172.575058 L95.2566372,172.575058 L95.2566372,122.459584 C95.2566372,117.286374 96.5185841,112.113164 98.920354,107.586605 L103.235398,109.809469 C101.159292,113.729792 100.141593,118.013857 100.141593,122.459584 L100.141593,172.575058 Z"/>
    <path fill="#FFFFFF" fill-rule="nonzero" d="M108.690265,166.916859 C107.346903,166.916859 106.247788,165.825635 106.247788,164.491917 L106.247788,140.646651 C106.247788,139.312933 107.346903,138.221709 108.690265,138.221709 C110.033628,138.221709 111.132743,139.312933 111.132743,140.646651 L111.132743,164.491917 C111.132743,165.825635 110.033628,166.916859 108.690265,166.916859 Z M108.690265,135.796767 C107.346903,135.796767 106.247788,134.705543 106.247788,133.371824 C106.247788,132.038106 107.346903,130.946882 108.690265,130.946882 C110.033628,130.946882 111.132743,132.038106 111.132743,133.371824 C111.132743,134.705543 110.033628,135.796767 108.690265,135.796767 Z"/>
    <path fill="#333333" fill-rule="nonzero" d="M38.9575221,113.527714 C32.7699115,119.953811 28.9433628,128.683603 28.9433628,138.262125 L28.9433628,171.766744 L21.1681416,171.766744 L21.1681416,138.262125 C21.1681416,125.975751 27.3964602,115.103926 36.9221239,108.677829 C37.7362832,110.213626 38.4283186,111.87067 38.9575221,113.527714 Z" opacity=".44"/>
    <path fill="#333333" fill-rule="nonzero" d="M69,111.951501 C61.3061947,111.951501 53.8973451,109.688222 47.5469027,105.444573 L47.4654867,105.404157 C47.3840708,105.363741 47.3433628,105.323326 47.2619469,105.242494 C36.8,98.0889145 30.5309735,86.3279446 30.5309735,73.7182448 L30.5309735,43.8106236 C30.5309735,43.4872979 30.6123894,43.1235566 30.7345133,42.8002309 C31.4265487,41.2644342 47.7504425,5.61778291 69,5.61778291 C90.2088496,5.61778291 107.469027,22.7540416 107.469027,43.8106236 L107.469027,73.7182448 C107.469027,86.3279446 101.2,98.0889145 90.7380531,105.242494 C90.6566372,105.28291 90.6159292,105.323326 90.5345133,105.404157 L90.4938053,105.444573 C90.4938053,105.444573 90.4938053,105.444573 90.4938053,105.444573 C84.1026549,109.688222 76.6938053,111.951501 69,111.951501 Z M35.4159292,44.3764434 L35.4159292,73.7586605 C35.4159292,84.7517321 40.8707965,95.0577367 50.0300885,101.281755 C50.0707965,101.281755 50.0707965,101.322171 50.1115044,101.322171 C50.1522124,101.362587 50.1522124,101.362587 50.1929204,101.403002 L50.2743363,101.443418 C55.8106195,105.121247 62.2831858,107.101617 69,107.101617 C75.7168142,107.101617 82.1893805,105.161663 87.7256637,101.443418 L87.8884956,101.322171 C87.9292035,101.322171 87.9292035,101.281755 87.9699115,101.281755 C97.1292035,95.0577367 102.624779,84.7517321 102.624779,73.7586605 L102.624779,43.8510393 C102.584071,25.4618938 87.5221239,10.5080831 69,10.5080831 C59.759292,10.5080831 51.1292035,19.682448 45.5115044,27.4018476 C40.0159292,34.8787529 36.3115044,42.4769053 35.4159292,44.3764434 Z"/>
    <path fill="#3A88D6" fill-rule="nonzero" d="M81.3752212,43.6489607 L60.5327434,43.6489607 L33.380531,43.6489607 L33.380531,24.0473441 C33.380531,12.1247113 43.1504425,2.42494226 55.159292,2.42494226 L83.2070796,2.42494226 C95.2566372,2.42494226 105.026549,12.1247113 105.026549,24.0473441 L105.026549,43.6489607 L85.5681416,43.6489607 L81.3752212,43.6489607"/>
    <path fill="#333333" fill-rule="nonzero" d="M40.1380531,0 L21.819469,0 C9.7699115,0 0,9.69976905 0,21.6224018 L0,41.2240185 L18.3185841,41.2240185 L18.3185841,21.6224018 C18.3185841,9.69976905 28.0884956,0 40.1380531,0 Z" opacity=".44" transform="translate(33.38 2.425)"/>
    <path fill="#333333" fill-rule="nonzero" d="M42.7433628,172.575058 L37.8584071,172.575058 L37.8584071,122.459584 C37.8584071,117.973441 36.8,113.729792 34.7646018,109.809469 L39.079646,107.586605 C41.4814159,112.15358 42.7433628,117.286374 42.7433628,122.459584 L42.7433628,172.575058 Z"/>
    <path fill="#333333" fill-rule="nonzero" d="M116.831858 175L21.1681416 175C19.8247788 175 18.7256637 173.908776 18.7256637 172.575058L18.7256637 138.262125C18.7256637 125.612009 25.0353982 113.810624 35.5787611 106.69746 39.4053097 104.110855 43.6389381 102.251732 48.1168142 101.160508 48.1575221 101.160508 48.2389381 101.120092 48.279646 101.120092L48.320354 101.120092 49.5415929 105.808314C49.460177 105.808314 49.419469 105.84873 49.3380531 105.84873L49.2973451 105.84873C49.2973451 105.84873 49.2566372 105.84873 49.2566372 105.84873 45.3486726 106.778291 41.6849558 108.394919 38.3061947 110.658199 29.1061947 116.882217 23.6106195 127.188222 23.6106195 138.221709L23.6106195 170.150115 114.389381 170.150115 114.389381 138.262125C114.389381 127.228637 108.893805 116.922633 99.6938053 110.698614 96.3557522 108.435335 92.6513274 106.818707 88.7433628 105.889145 88.7433628 105.889145 88.7026549 105.889145 88.7026549 105.889145L88.6619469 105.889145C88.580531 105.889145 88.539823 105.84873 88.4584071 105.84873L89.679646 101.160508 89.0690265 103.504619 89.679646 101.160508 89.720354 101.160508C89.7610619 101.160508 89.8424779 101.200924 89.8831858 101.200924 94.3610619 102.292148 98.5539823 104.15127 102.421239 106.737875 112.964602 113.851039 119.274336 125.652425 119.274336 138.30254L119.274336 172.575058C119.274336 173.908776 118.175221 175 116.831858 175zM105.026549 46.073903L32.9734513 46.073903C31.6300885 46.073903 30.5309735 44.982679 30.5309735 43.6489607L30.5309735 24.0473441C30.5309735 10.7909931 41.4 0 54.7522124 0L83.2477876 0C96.6 0 107.469027 10.7909931 107.469027 24.0473441L107.469027 43.6489607C107.469027 44.982679 106.369912 46.073903 105.026549 46.073903zM35.4159292 41.2240185L102.584071 41.2240185 102.584071 24.0473441C102.584071 13.4584296 93.9132743 4.84988453 83.2477876 4.84988453L54.7522124 4.84988453C44.0867257 4.84988453 35.4159292 13.4584296 35.4159292 24.0473441L35.4159292 41.2240185z"/>
    <path fill="#FFFFFF" fill-rule="nonzero" d="M97.699115 38.7990762C96.3557522 38.7990762 95.2566372 37.7078522 95.2566372 36.3741339L95.2566372 24.0473441C95.2566372 21.2990762 94.279646 18.591224 92.5292035 16.4896074 91.6743363 15.4387991 91.8371681 13.943418 92.8548673 13.0946882 93.9132743 12.2459584 95.419469 12.4076212 96.2743363 13.4180139 98.7575221 16.408776 100.100885 20.2078522 100.100885 24.0877598L100.100885 36.3741339C100.141593 37.7078522 99.0424779 38.7990762 97.699115 38.7990762zM87.1150442 12.6501155C86.9115044 12.6501155 86.6672566 12.6096998 86.4637168 12.5692841 85.4053097 12.2863741 84.3469027 12.1247113 83.2477876 12.1247113 81.9044248 12.1247113 80.8053097 11.0334873 80.8053097 9.69976905 80.8053097 8.36605081 81.9044248 7.27482679 83.2477876 7.27482679 84.7946903 7.27482679 86.300885 7.47690531 87.8070796 7.88106236 89.1097345 8.2448037 89.8831858 9.57852194 89.5168142 10.8718245 89.1504425 11.9630485 88.1734513 12.6501155 87.1150442 12.6501155z"/>
    <g fill-rule="nonzero" transform="translate(30.531 41.224)">
      <g fill="#7C5901" transform="translate(2.442 2.425)">
        <path d="M71.6460177 0L72.0530973 28.2909931C66.5575221 22.0265589 63.5044248 14.0242494 63.5044248 5.69861432L63.5044248 0 71.6460177 0zM8.54867257 0L8.54867257 5.69861432C8.54867257 14.0242494 5.49557522 22.0265589 0 28.2909931L.407079646 0 8.54867257 0z"/>
      </g>
      <g fill="#333333">
        <path d="M2.44247788 33.1408776C2.15752212 33.1408776 1.87256637 33.1004619 1.58761062 32.9792148.651327434 32.6154734-.35228503e-15 31.6859122.0407079646 30.6755196L.447787611 2.38452656C.447787611 1.05080831 1.54690265 0 2.89026549 0L11.0318584 0C12.3752212 0 13.4743363 1.09122402 13.4743363 2.42494226L13.4743363 8.12355658C13.4743363 17.0150115 10.2176991 25.6235566 4.31504425 32.2921478 3.82654867 32.8579677 3.13451327 33.1408776 2.44247788 33.1408776zM5.25132743 4.84988453L5.00707965 22.7136259C7.32743363 18.2274827 8.54867257 13.256351 8.54867257 8.16397229L8.54867257 4.84988453 5.25132743 4.84988453zM74.4955752 33.1408776C73.8035398 33.1408776 73.1115044 32.8579677 72.6637168 32.2921478 66.7610619 25.6235566 63.5044248 17.0150115 63.5044248 8.12355658L63.5044248 2.42494226C63.5044248 1.09122402 64.6035398 0 65.9469027 0L74.0884956 0C75.4318584 0 76.5309735 1.05080831 76.5309735 2.38452656L76.9380531 30.6755196C76.9380531 31.6859122 76.3274336 32.6154734 75.3504425 32.9792148 75.0654867 33.1004619 74.780531 33.1408776 74.4955752 33.1408776zM68.3893805 4.84988453L68.3893805 8.12355658C68.3893805 13.2159353 69.6106195 18.2274827 71.9309735 22.6732102L71.6867257 4.84988453 68.3893805 4.84988453z"/>
      </g>
    </g>
    <g fill="#333333" fill-rule="nonzero" transform="translate(0 170.15)">
      <path d="M122.530973 4.84988453L15.5504425 4.84988453C14.2070796 4.84988453 13.1079646 3.75866051 13.1079646 2.42494226 13.1079646 1.09122402 14.2070796 0 15.5504425 0L122.530973 0C123.874336 0 124.973451 1.09122402 124.973451 2.42494226 124.973451 3.75866051 123.874336 4.84988453 122.530973 4.84988453zM135.557522 4.84988453L131.079646 4.84988453C129.736283 4.84988453 128.637168 3.75866051 128.637168 2.42494226 128.637168 1.09122402 129.736283 0 131.079646 0L135.557522 0C136.900885 0 138 1.09122402 138 2.42494226 138 3.75866051 136.900885 4.84988453 135.557522 4.84988453zM6.92035398 4.84988453L2.44247788 4.84988453C1.09911504 4.84988453 0 3.75866051 0 2.42494226 0 1.09122402 1.09911504 0 2.44247788 0L6.92035398 0C8.26371681 0 9.36283186 1.09122402 9.36283186 2.42494226 9.36283186 3.75866051 8.26371681 4.84988453 6.92035398 4.84988453z"/>
    </g>
    <path stroke="#333333" stroke-width="4.86" d="M25.5238938,48.4988453 C25.5238938,48.4988453 65.9469027,35.1616628 112.231858,48.4988453" stroke-linecap="round" stroke-linejoin="round"/>
    <path fill="#333333" fill-rule="nonzero" d="M94.3610619,49.3071594 L97.2920354,48.9838337 C98.0654867,48.9030023 98.3911504,47.8926097 97.739823,47.4076212 C97.739823,47.4076212 97.739823,47.4076212 97.739823,47.4076212 C90.1681416,42.2344111 30.0424779,29.2205543 37.2884956,68.0600462 L32.9734513,73.7586605 C32.9734513,86.0450346 39.2017699,96.8360277 48.6867257,103.30254 C48.7681416,103.342956 48.8495575,103.423788 48.9309735,103.464203 C54.6707965,107.303695 61.5911504,109.526559 69.040708,109.526559 C69.0814159,109.526559 69.0814159,109.526559 69.1221239,109.526559 C70.3433628,109.526559 70.6283186,107.829099 69.4884956,107.424942 C66.679646,106.41455 64.0336283,105.080831 61.5911504,103.464203 C61.5097345,103.423788 61.4283186,103.342956 61.3469027,103.30254 C51.9026549,96.8764434 45.7150442,86.1258661 45.6336283,73.9203233 C45.6336283,73.7990762 45.6336283,73.7182448 45.5929204,73.5969977 C45.5929204,73.5969977 55.7699115,58.6027714 50.2336283,53.3487298 C49.6637168,52.7829099 50.0707965,51.812933 50.8849558,51.812933 C61.9982301,52.0150115 91.1044248,52.2979215 93.9539823,49.5496536 C93.9946903,49.4284065 94.1982301,49.3475751 94.3610619,49.3071594 Z" opacity=".44"/>
    <path fill="#333333" fill-rule="nonzero" d="M69.6513274,95.7852194 C65.3362832,95.7852194 61.9168142,94.0069284 61.6725664,93.8856813 C60.5734513,93.3198614 60.1663717,91.9457275 60.7362832,90.8949192 C61.3061947,89.8036952 62.6495575,89.3995381 63.7486726,89.965358 C63.8300885,90.0057737 69.6513274,92.9561201 74.4955752,90.0461894 C75.5539823,89.3995381 76.9380531,89.7632794 77.5893805,90.8140878 C78.240708,91.8648961 77.8743363,93.23903 76.8159292,93.8856813 C74.4141593,95.3002309 71.8902655,95.7852194 69.6513274,95.7852194 Z"/>
  </g>
</svg>
