<svg xmlns="http://www.w3.org/2000/svg" width="23" height="15" viewBox="0 0 23 15">
  <g fill="#FFFFFF">
    <path d="M8.05636383 9.04938776L11.6438627 9.04938776C11.0141438 10.8621429 9.30863617 12.1618367 7.31194553 12.1468367 4.88922876 12.1286224 2.88597386 10.1552551 2.79191939 7.6902551 2.69110022 5.04795918 4.77307625 2.86561224 7.34616993 2.86561224 8.52267756 2.86561224 9.59631155 3.32204082 10.4057211 4.06994898 10.5974379 4.24714286 10.8892723 4.24826531 11.0778322 4.06755102L12.3954967 2.80484694C12.6015447 2.60734694 12.6022963 2.27382653 12.3968497 2.07566327 11.1132092.83744898 9.3912658.0656632653 7.4923878.0279081633 3.44228322-.0526020408.0284117647 3.32846939.00020043573 7.45295918-.0282614379 11.6084184 3.27156209 14.9860714 7.34616993 14.9860714 11.2646383 14.9860714 14.4656972 11.8621429 14.6801133 7.9269898 14.6858257 7.87765306 14.6895839 6.2102551 14.6895839 6.2102551L8.05636383 6.2102551C7.78447277 6.2102551 7.56409368 6.43464286 7.56409368 6.71147959L7.56409368 8.54816327C7.56409368 8.825 7.78452288 9.04938776 8.05636383 9.04938776zM20.7683486 6.37704082L20.7683486 4.5825C20.7683486 4.33989796 20.5752288 4.14326531 20.3369608 4.14326531L18.8535359 4.14326531C18.615268 4.14326531 18.4221481 4.33989796 18.4221481 4.5825L18.4221481 6.37704082 16.6596667 6.37704082C16.4213987 6.37704082 16.2282789 6.57367347 16.2282789 6.81627551L16.2282789 8.32668367C16.2282789 8.56928571 16.4213987 8.76591837 16.6596667 8.76591837L18.4221481 8.76591837 18.4221481 10.5604592C18.4221481 10.8030612 18.615268 10.9996939 18.8535359 10.9996939L20.3369608 10.9996939C20.5752288 10.9996939 20.7683486 10.8030612 20.7683486 10.5604592L20.7683486 8.76591837 22.5308301 8.76591837C22.769098 8.76591837 22.9622179 8.56928571 22.9622179 8.32668367L22.9622179 6.81627551C22.9622179 6.57367347 22.769098 6.37704082 22.5308301 6.37704082L20.7683486 6.37704082z"/>
  </g>
</svg>
