<?xml version="1.0" encoding="UTF-8"?>
<svg width="16px" height="18px" viewBox="0 0 16 18" version="1.1" xmlns="http://www.w3.org/2000/svg" xmlns:xlink="http://www.w3.org/1999/xlink">
    <!-- Generator: Sketch 48.2 (47327) - http://www.bohemiancoding.com/sketch -->
    <title>@0.5xHome</title>
    <desc>Created with Sketch.</desc>
    <defs></defs>
    <g id="Menu-Shrink" stroke="none" stroke-width="1" fill="none" fill-rule="evenodd" transform="translate(-22.000000, -140.000000)">
        <g id="Home" transform="translate(22.000000, 140.000000)" fill="#525566">
            <path d="M14.0388571,16.5735 L10.7794286,16.5735 L10.7794286,12.2985 C10.7794286,11.43 10.0022857,10.7235 9.04685714,10.7235 L6.688,10.7235 C5.73257143,10.7235 4.95085714,11.43 4.95085714,12.2985 L4.95085714,16.5735 L1.84685714,16.5735 C1.72342857,16.5735 1.61828571,16.47 1.61828571,16.3485 L1.61828571,7.6815 L7.91314286,1.638 L14.1942857,7.4475 L14.2674286,16.3485 C14.2674286,16.47 14.1622857,16.5735 14.0388571,16.5735 Z M15.5611429,7.146 C15.5611429,7.146 15.5611429,7.1415 15.5611429,7.137 C15.5611429,7.1325 15.5611429,7.128 15.5611429,7.119 C15.5565714,7.038 15.5382857,6.957 15.5062857,6.8805 L15.5017143,6.876 C15.4651429,6.795 15.4148571,6.723 15.3508571,6.6645 C15.3508571,6.6645 15.3462857,6.6645 15.3462857,6.66 L8.37485714,0.2115 C8.10971429,-0.036 7.68914286,-0.0315 7.42857143,0.2205 L0.457142857,6.912 C0.452571429,6.9165 0.452571429,6.9165 0.452571429,6.9165 C0.388571429,6.9795 0.338285714,7.0515 0.301714286,7.1325 C0.301714286,7.137 0.301714286,7.137 0.301714286,7.137 C0.269714286,7.2135 0.251428571,7.2945 0.251428571,7.38 C0.251428571,7.3845 0.246857143,7.389 0.246857143,7.3935 C0.246857143,7.3935 0.246857143,7.3935 0.246857143,7.398 L0.246857143,16.3485 C0.246857143,17.217 0.964571429,17.9235 1.84685714,17.9235 L5.63657143,17.9235 C6.016,17.9235 6.32228571,17.622 6.32228571,17.2485 C6.32228571,17.226 6.31771429,17.199 6.31771429,17.1765 C6.31771429,17.1495 6.32228571,17.127 6.32228571,17.1 L6.32228571,12.2985 C6.32228571,12.2085 6.464,12.0735 6.688,12.0735 L9.04685714,12.0735 C9.27085714,12.0735 9.408,12.2085 9.408,12.2985 L9.408,17.1 C9.408,17.127 9.41714286,17.1495 9.41714286,17.1765 C9.41714286,17.199 9.408,17.226 9.408,17.2485 C9.408,17.622 9.71885714,17.9235 10.0937143,17.9235 L14.0388571,17.9235 C14.9211429,17.9235 15.6388571,17.217 15.6388571,16.344 L15.5611429,7.146 Z" id="8I"></path>
        </g>
    </g>
</svg>