<svg id="Layer_1" data-name="Layer 1" xmlns="http://www.w3.org/2000/svg" viewBox="0 0 659 297.72"><defs><style>.cls-1{fill:#42dfff;}.cls-2{fill:#002880;}.cls-3{fill:#2962ff;}</style></defs><title>newrallylogo</title><path class="cls-1" d="M500.82,210.75v.48a34.84,34.84,0,0,1-9.06,23.5,36.87,36.87,0,0,1-22.54,12l-1,.14h-5.83A66.29,66.29,0,0,1,434,240.67a77.06,77.06,0,0,1-22.62-16,74.91,74.91,0,0,1-15.49-23.4A72.18,72.18,0,0,1,390.24,173V35l.09-.8a37.68,37.68,0,0,1,11-22.62A35.61,35.61,0,0,1,425.76,1.15h.51a34.44,34.44,0,0,1,25.19,10.55,38.12,38.12,0,0,1,10.8,24.53l0,.94V173a3.34,3.34,0,0,0,.91,2.64c.34.36.53.56,1.6.56A35.87,35.87,0,0,1,489.49,186,34.79,34.79,0,0,1,500.82,210.75Z" transform="translate(-11 -1.14)"/><path class="cls-2" d="M143.61,89.46A34.4,34.4,0,0,1,133,114.65a37.06,37.06,0,0,1-25,10.49h-.47A24.11,24.11,0,0,0,98,127a24.44,24.44,0,0,0-7.83,5.25,26.37,26.37,0,0,0-5.48,8.14,24.28,24.28,0,0,0-2,10v63.13l0,.5A35.87,35.87,0,0,1,72,237.3c-6.46,6.29-15.21,9.61-25.28,9.61a34.7,34.7,0,0,1-24.76-9.78c-6.54-6.35-10.21-14.63-10.9-24.64l0-.91,0-63.92a91,91,0,0,1,8.26-36.41A97,97,0,0,1,40,81.78a98.42,98.42,0,0,1,30.19-19.9,104.33,104.33,0,0,1,36.5-8.1l.55,0a34.83,34.83,0,0,1,25.53,10.57,37.69,37.69,0,0,1,10.8,24.12Z" transform="translate(-11 -1.14)"/><path class="cls-3" d="M304.13,115a100.57,100.57,0,0,0-17.84-29.32,95.87,95.87,0,0,0-27.15-21.39,94.11,94.11,0,0,0-33.67-10.4,48.06,48.06,0,0,0-6.3-.44h-5c-19.83,0-37.86,5.4-53.58,16.06a98,98,0,0,0-35,41.84,105.47,105.47,0,0,0-6.09,18.48,92.38,92.38,0,0,0,0,40.35,104.62,104.62,0,0,0,6.09,18.53l.08.17a99.48,99.48,0,0,0,34.87,41.45c15.74,10.78,33.78,16.27,53.64,16.27a97.44,97.44,0,0,0,22-2.44,104.1,104.1,0,0,0,16.49-5.46,34.17,34.17,0,0,0,22.36,7.9,35.41,35.41,0,0,0,24.66-10.2,34.43,34.43,0,0,0,11-25.49V150A94,94,0,0,0,304.13,115ZM191,140.74a26.85,26.85,0,0,1,5.64-8.31,27.53,27.53,0,0,1,8.26-5.71,21.44,21.44,0,0,1,9-1.93,22.58,22.58,0,0,1,9.26,2,26.79,26.79,0,0,1,14,14,22.57,22.57,0,0,1,2,9.26,24.22,24.22,0,0,1-2,9.95,26.26,26.26,0,0,1-5.49,8.16,23.64,23.64,0,0,1-7.88,5.18,25.12,25.12,0,0,1-9.86,1.92,20.58,20.58,0,0,1-8.64-1.93,28.68,28.68,0,0,1-8.42-5.69,26.75,26.75,0,0,1-5.77-8.25,21.74,21.74,0,0,1-2-9.34A22.55,22.55,0,0,1,191,140.74Z" transform="translate(-11 -1.14)"/><path class="cls-3" d="M670,87.39V264.2a32.87,32.87,0,0,1-11.3,25.05A36.47,36.47,0,0,1,634,298.86a36.05,36.05,0,0,1-24.39-9.61c-7.39-6.64-11.29-15.66-11.29-26.07V243.24c-.63.16-1.24.3-1.86.44a108.47,108.47,0,0,1-23.35,2.56,93.3,93.3,0,0,1-37.27-7.64A99.91,99.91,0,0,1,505.07,218a97.25,97.25,0,0,1-21.13-31.24,99.7,99.7,0,0,1-7.78-39.47V88.42a35.37,35.37,0,0,1,35.68-35.33A37.06,37.06,0,0,1,536,62a32.06,32.06,0,0,1,11.87,25.4v62.27a24,24,0,0,0,1.86,9.57,24.43,24.43,0,0,0,5.25,7.84,26.35,26.35,0,0,0,8.14,5.47,24.09,24.09,0,0,0,10,2,25.48,25.48,0,0,0,9.44-1.84,26.5,26.5,0,0,0,8.29-5,24.28,24.28,0,0,0,5.57-7.5,19.65,19.65,0,0,0,1.91-8.76v-63A35.35,35.35,0,0,1,634,53.09a36.86,36.86,0,0,1,24.6,9.31A32.38,32.38,0,0,1,670,87.39Z" transform="translate(-11 -1.14)"/><path class="cls-1" d="M409.05,210.73v.5a34.79,34.79,0,0,1-9.06,23.5,36.87,36.87,0,0,1-22.54,12l-1,.14h-5.84a66.29,66.29,0,0,1-28.34-6.24,77.06,77.06,0,0,1-22.62-16,74.91,74.91,0,0,1-15.49-23.4A72.18,72.18,0,0,1,298.47,173V35l.1-.79a37.67,37.67,0,0,1,11-22.63A35.66,35.66,0,0,1,334,1.15h.49a34.42,34.42,0,0,1,25.19,10.55,38,38,0,0,1,10.8,24.52l.05.95V173a3.34,3.34,0,0,0,.89,2.64c.34.36.53.56,1.6.56A35.87,35.87,0,0,1,397.72,186,34.76,34.76,0,0,1,409.05,210.73Z" transform="translate(-11 -1.14)"/></svg>