<svg xmlns="http://www.w3.org/2000/svg" width="145" height="184" viewBox="0 0 145 184">
  <g fill="none">
    <g transform="translate(22.516 53.854)">
      <g fill="#FFD3AE" transform="translate(2.572 2.613)">
        <ellipse cx="11.972" cy="12.196" rx="11.956" ry="12.148"/>
        <ellipse cx="81.047" cy="12.196" rx="11.956" ry="12.148"/>
      </g>
      <g fill="#333333">
        <path d="M14.5438237 29.5715983C6.53308199 29.5715983.0158611571 22.9494594.0158611571 14.8097561.0158611571 6.6700528 6.53308199.0479139168 14.5438237.0479139168 22.554994.0479139168 29.0722149 6.6700528 29.0722149 14.8097561 29.0722149 22.9494594 22.5545654 29.5715983 14.5438237 29.5715983zM14.5438237 5.27488666C9.36965703 5.27488666 5.16002021 9.55229268 5.16002021 14.8097561 5.16002021 20.0672195 9.36922835 24.3446255 14.5438237 24.3446255 19.718419 24.3446255 23.9280558 20.0672195 23.9280558 14.8097561 23.9280558 9.55229268 19.7179903 5.27488666 14.5438237 5.27488666zM83.6195914 29.5715983C75.608421 29.5715983 69.0912002 22.9494594 69.0912002 14.8097561 69.0912002 6.6700528 75.608421.0479139168 83.6195914.0479139168 91.6303331.0479139168 98.1475539 6.6700528 98.1475539 14.8097561 98.1475539 22.9494594 91.6299044 29.5715983 83.6195914 29.5715983zM83.6195914 5.27488666C78.4454247 5.27488666 74.2353592 9.55229268 74.2353592 14.8097561 74.2353592 20.0672195 78.4449961 24.3446255 83.6195914 24.3446255 88.7941867 24.3446255 93.0033949 20.0672195 93.0033949 14.8097561 93.0033949 9.55229268 88.793758 5.27488666 83.6195914 5.27488666z"/>
      </g>
    </g>
    <path fill="#A5CDEF" d="M93.4929253,108.604878 C93.5737409,108.626132 93.65881,108.643136 93.7396257,108.66439 C98.1887392,109.739857 102.327351,111.610235 106.002335,114.10974 C115.951166,120.877108 122.484472,132.290664 122.484472,145.221776 L122.484472,181.307317 L102.476221,181.307317 L42.5195251,181.307317 L22.515528,181.307317 L22.515528,145.221776 C22.515528,132.290664 29.0445808,120.877108 38.9934112,114.10974 C42.668396,111.610235 46.8070073,109.739857 51.2561209,108.66439 C51.3369365,108.643136 51.4220056,108.626132 51.5028212,108.604878"/>
    <path fill="#FFD3AE" d="M42.3291925 128.502933L42.3291925 181.307317 22.515528 181.307317 22.515528 145.157606C22.515528 132.203498 28.9824587 120.769646 38.8366287 113.990244 41.0695103 118.33383 42.3291925 123.269337 42.3291925 128.502933zM122.484472 145.157606L122.484472 181.307317 102.670807 181.307317 102.670807 128.502933C102.670807 123.269337 103.930222 118.33383 106.162629 113.990244 116.014704 120.769646 122.484472 132.203498 122.484472 145.157606zM92.7639752 108.665851L92.7639752 114.679487C92.7639752 126.69108 83.2877963 136.429268 71.5993789 136.429268 59.9109615 136.429268 50.4347826 126.69108 50.4347826 114.679487L50.4347826 108.665851C50.5153047 108.644075 50.6000648 108.626654 50.6805869 108.604878 56.6561737 112.737946 63.852306 115.150717 71.5993789 115.150717 79.3464518 115.150717 86.542584 112.737946 92.5181709 108.604878 92.598693 108.626654 92.6834531 108.644075 92.7639752 108.665851z"/>
    <path fill="#333333" d="M92.7639752,108.884256 C89.8622384,114.398753 85.6387907,119.118096 80.5198515,122.616771 C80.4380518,122.676945 80.3519469,122.73282 80.2701472,122.788696 C74.1997483,126.867618 66.8894382,129.24878 59.0194459,129.24878 C56.2210351,129.24878 56.3213474,126.122753 53.6951465,125.546804 C53.4110001,124.158509 50.4347826,122.337393 50.4347826,120.867433 L50.4347826,108.665052 C50.5165823,108.643561 50.6026873,108.626369 50.684487,108.604878 C56.7548858,112.6838 64.0651959,115.064962 71.9351882,115.064962 C79.6243601,115.064962 86.7796813,112.791253 92.7639752,108.884256 Z" opacity=".44"/>
    <path fill="#FFD3AE" d="M94.0474366,109.389547 C88.0209075,113.427892 80.7634277,115.785366 72.9503106,115.785366 C65.1371934,115.785366 57.8797137,113.427892 51.8531845,109.389547 C51.771976,109.334227 51.6864933,109.278907 51.6052848,109.219332 C41.6551005,102.436274 35.1242236,91.0403965 35.1242236,78.1253522 L35.1242236,68.5507725 L35.1242236,46.6356234 C35.1242236,25.8366574 52.0596252,8.97560976 72.9503106,8.97560976 C93.8409959,8.97560976 110.776398,25.8366574 110.776398,46.6356234 L110.776398,68.5507725 L110.776398,78.1253522 C110.776398,91.0403965 104.245521,102.436274 94.2953364,109.219332 C94.2141278,109.278907 94.1286451,109.334227 94.0474366,109.389547 Z"/>
    <g transform="translate(69.348 14.361)">
      <path fill="#333333" d="M2.59979296,2.30801394 C4.45347136,2.30801394 6.2647205,2.48573101 8.01592823,2.82423972"/>
      <path fill="#FFFFFF" d="M8.01873016,5.13263833 C7.86142167,5.13263833 7.7021118,5.11763624 7.54240166,5.08686272 C5.92608696,4.7745115 4.26253968,4.61602787 2.59939268,4.61602787 C1.27327812,4.61602787 0.19773637,3.5824223 0.19773637,2.30801394 C0.19773637,1.03360557 1.27327812,0 2.59939268,0 C4.57995859,0 6.56172533,0.188872474 8.48985507,0.561616725 C9.78995169,0.813190244 10.6325328,2.02989826 10.370352,3.2796878 C10.1409938,4.37560976 9.13870255,5.13263833 8.01873016,5.13263833 Z"/>
    </g>
    <path fill="#333333" d="M72.0498987,138.22439 C59.1378324,138.22439 48.6335404,127.649304 48.6335404,114.651156 L48.6335404,108.604878 L53.6567134,108.604878 L53.6567134,114.651156 C53.6567134,124.861308 61.9081124,133.167565 72.0498987,133.167565 C82.1916851,133.167565 90.4426655,124.861308 90.4426655,114.651156 L90.4426655,108.604878 L95.4658385,108.604878 L95.4658385,114.651156 C95.4662571,127.649725 84.9615465,138.22439 72.0498987,138.22439 Z"/>
    <g fill="#333333" transform="translate(55.839 70.907)">
      <path d="M2.98555901 4.29344841C2.30041983 4.29344841 1.62828963 4.07251032 1.14695767 3.68932083.661289395 3.30267917.383764665 2.76759475.383764665 2.22215385.383764665 1.67671295.661289395 1.14508068 1.14695767.758439024 1.74970669.278589118 2.64732574.0576510319 3.4929089.192285178 3.66202553.219902439 3.82246952.257876173 3.9829135.309658537 4.13902116.361440901 4.2907925.427031895 4.42955487.499527205 4.57265355.575474672 4.7070796.661778612 4.82416034.758439024 4.94557741.855099437 5.05398551.958664165 5.14938463 1.07258537 5.24478376 1.18650657 5.32283759 1.30733208 5.38788245 1.43160976 5.45292731 1.55588743 5.50496319 1.68706942 5.53531746 1.81825141 5.57000805 1.95288555 5.58735335 2.0875197 5.58735335 2.22215385 5.58735335 2.35678799 5.57000805 2.4948743 5.53531746 2.62950844 5.50496319 2.76069043 5.45292731 2.89187242 5.38788245 3.01615009 5.32283759 3.14042777 5.24478376 3.26125328 5.14938463 3.37172233 5.05398551 3.48564353 4.94557741 3.59266041 4.82416034 3.68932083 4.34282839 4.07251032 3.67069818 4.29344841 2.98555901 4.29344841zM32.4725615 4.29344841C32.3034449 4.29344841 32.1299919 4.27963977 31.9652116 4.25547467 31.8004313 4.22785741 31.635651 4.18643152 31.4795434 4.13464916 31.3190994 4.08286679 31.1716644 4.02072795 31.0285657 3.94478049 30.885467 3.86883302 30.7510409 3.78252908 30.6339602 3.68932083 30.5125431 3.59266041 30.404135 3.48564353 30.3087359 3.37172233 30.2133368 3.26125328 30.135283 3.14042777 30.0702381 3.01615009 30.0051932 2.89187242 29.9531573 2.76069043 29.9228031 2.62950844 29.8881125 2.4948743 29.8707672 2.35678799 29.8707672 2.22215385 29.8707672 2.0875197 29.8881125 1.95288555 29.9228031 1.81825141 29.9531573 1.68706942 30.0051932 1.55588743 30.0702381 1.43160976 30.135283 1.30733208 30.2133368 1.18650657 30.3087359 1.07258537 30.404135.958664165 30.5125431.855099437 30.6339602.758439024 30.7510409.661778612 30.885467.575474672 31.0285657.499527205 31.1716644.427031895 31.3190994.361440901 31.4795434.309658537 31.635651.257876173 31.8004313.219902439 31.9652116.192285178 32.8107948.0576510319 33.7084138.278589118 34.3111629.758439024 34.4325799.855099437 34.540988.958664165 34.6363872 1.07258537 34.7317863 1.18650657 34.8098401 1.30733208 34.874885 1.43160976 34.9399298 1.55588743 34.9919657 1.68706942 35.02232 1.81825141 35.0570106 1.95288555 35.0743559 2.0875197 35.0743559 2.22215385 35.0743559 2.35678799 35.0570106 2.4948743 35.02232 2.62950844 34.9919657 2.76069043 34.9399298 2.89187242 34.874885 3.01615009 34.8098401 3.14042777 34.7317863 3.26125328 34.6363872 3.37172233 34.540988 3.48564353 34.4325799 3.59266041 34.3111629 3.68932083 33.8298309 4.07251032 33.1577007 4.29344841 32.4725615 4.29344841z"/>
    </g>
    <g fill="#333333" transform="translate(49.534 65.522)">
      <path d="M19.9832844 17.0536585C18.5611195 17.0536585 17.4076763 15.93602 17.4076763 14.5580012L17.4076763 7.54686782C17.4076763 6.21418679 16.2890039 5.13023962 14.9131999 5.13023962L2.64472021 5.13023962C1.22255529 5.13023962.0691121495 4.01260107.0691121495 2.63458227.0691121495 1.25656347 1.22255529.138924926 2.64472021.138924926L14.9131999.138924926C19.1286118.138924926 22.5588924 3.46230863 22.5588924 7.54686782L22.5588924 14.5580012C22.5588924 15.93602 21.4054493 17.0536585 19.9832844 17.0536585zM43.2822349 5.12982368L32.9798026 5.12982368C31.5576377 5.12982368 30.4041946 4.01218513 30.4041946 2.63416633 30.4041946 1.25614753 31.5576377.138508983 32.9798026.138508983L43.2822349.138508983C44.7043998.138508983 45.8578429 1.25614753 45.8578429 2.63416633 45.8578429 4.01218513 44.704829 5.12982368 43.2822349 5.12982368z"/>
    </g>
    <path fill="#333333" d="M76.7028986 96.9365854L66.4958592 96.9365854C65.0868625 96.9365854 63.9440994 95.9316911 63.9440994 94.6926829 63.9440994 93.4536748 65.0868625 92.4487805 66.4958592 92.4487805L76.7028986 92.4487805C78.1118953 92.4487805 79.2546584 93.4536748 79.2546584 94.6926829 79.2546584 95.9316911 78.1123206 96.9365854 76.7028986 96.9365854zM105.479015 181.307317L99.9689441 181.307317 99.9689441 128.719036C99.9689441 123.283783 101.392838 117.879913 104.085886 113.092683L108.975155 115.439223C106.654956 119.563162 105.479015 124.031045 105.479015 128.719036L105.479015 181.307317z"/>
    <path fill="#FFFFFF" d="M113.926884,175.921951 C112.684583,175.921951 111.677019,174.783824 111.677019,173.380543 L111.677019,148.390025 C111.677019,146.986744 112.684583,145.848616 113.926884,145.848616 C115.169185,145.848616 116.176749,146.986744 116.176749,148.390025 L116.176749,173.380543 C116.176749,174.783824 115.169185,175.921951 113.926884,175.921951 Z M113.930259,143.307207 C112.687958,143.307207 111.678519,142.16908 111.678519,140.765799 C111.678519,139.362518 112.684208,138.22439 113.926509,138.22439 L113.930259,138.22439 C115.17256,138.22439 116.180124,139.362518 116.180124,140.765799 C116.180124,142.16908 115.172934,143.307207 113.930259,143.307207 Z"/>
    <path fill="#333333" d="M41.4285714,119.096818 C34.8427795,125.858774 30.7943144,135.033586 30.7943144,145.136093 L30.7943144,180.409756 L22.515528,180.409756 L22.515528,145.136093 C22.515528,132.190926 29.1619386,120.764966 39.2895963,113.990244 C40.1469183,115.615837 40.8656832,117.322284 41.4285714,119.096818 Z" opacity=".44"/>
    <path fill="#333333" d="M122.627413,184 L22.3730138,184 C20.9598265,184 19.8136646,182.866017 19.8136646,181.466902 L19.8136646,145.627791 C19.8136646,132.410931 26.409534,120.076856 37.4578177,112.634192 C41.4747163,109.928844 45.8883139,107.986802 50.5757619,106.862107 C50.6312144,106.848175 50.6879467,106.835087 50.7446789,106.821999 L50.7975721,106.809756 L52.0908966,111.711722 C52.0264863,111.72861 51.9603698,111.743808 51.8942533,111.759007 L51.84136,111.77125 C51.8328289,111.772939 51.8055292,111.780116 51.7974245,111.782227 C47.7037456,112.762114 43.848086,114.458023 40.3379387,116.822247 C30.6913251,123.320487 24.9323629,134.088686 24.9323629,145.627368 L24.9323629,178.933804 L120.067637,178.933804 L120.067637,145.627791 C120.067637,134.090797 114.306969,123.322598 104.657796,116.822247 C101.147648,114.458023 97.2924153,112.762114 93.1983098,111.782227 C93.1821005,111.778005 93.1658913,111.774206 93.1496821,111.769984 L93.101481,111.759007 C93.0357911,111.743808 92.9696746,111.72861 92.9052643,111.712145 L94.2007215,106.811023 L93.5527796,109.261795 L94.1981622,106.8106 L94.2497757,106.822422 C94.3073611,106.835509 94.3645199,106.849019 94.420399,106.862951 C99.1087001,107.987647 103.521871,109.929688 107.537917,112.634614 C118.58876,120.079389 125.186335,132.413464 125.186335,145.628213 L125.186335,181.466902 C125.186762,182.866017 124.0406,184 122.627413,184 Z"/>
    <path fill="#333333" d="M45.931677,181.307317 L40.4216059,181.307317 L40.4216059,128.719036 C40.4216059,124.031045 39.2452058,119.562738 36.9254658,115.439223 L41.8147356,113.092683 C44.5077828,117.880337 45.931677,123.283783 45.931677,128.719036 L45.931677,181.307317 Z"/>
    <path fill="#333333" d="M65.4942069,107.633418 C69.8327759,110.484051 74.8035117,112.493027 80.1552795,113.419272 C77.9773352,113.79569 75.7344422,113.990244 73.4439202,113.990244 C65.5288462,113.990244 58.1766603,111.647142 52.0714883,107.633418 C51.98922,107.578436 51.9026218,107.523453 51.8203536,107.464241 C41.7403249,100.722538 35.1242236,89.3961374 35.1242236,76.5598325 L35.1242236,67.0436262 C35.1242236,8.25461848 58.8910953,8.97319779 58.8910953,10.1955016 L54.3949176,16.8809537 C47.7424451,26.77231 47.7679915,39.3704983 53.9801123,49.1222836 C55.0292493,50.7696446 58.3754031,56.4366512 58.3182483,57.7359306 C58.1091137,62.5109514 54.3342989,66.7699824 49.079088,67.0300921 C48.9028607,67.0389738 48.7253344,67.0432033 48.5469422,67.0432033 L48.5469422,76.5594096 C48.5469422,89.3957145 55.1630435,100.722115 65.2430721,107.463818 C65.3253404,107.523453 65.4119386,107.578436 65.4942069,107.633418 Z" opacity=".44"/>
    <path fill="#FFFFFF" d="M100.419255,88.8585366 C99.1760223,88.8585366 98.1677019,87.7504369 98.1677019,86.3841793 L98.1677019,76.0743573 C98.1677019,74.7080997 99.1760223,73.6 100.419255,73.6 C101.662487,73.6 102.670807,74.7080997 102.670807,76.0743573 L102.670807,86.3841793 C102.670807,87.7504369 101.662487,88.8585366 100.419255,88.8585366 Z"/>
    <path fill="#333333" d="M72.0499039,117.580488 C63.9525051,117.580488 56.1360129,115.212446 49.4440046,110.732746 L49.3698109,110.682407 C49.2960462,110.633349 49.2222814,110.58301 49.1498032,110.531392 C38.1112488,102.999388 31.5217391,90.5670593 31.5217391,77.2670314 L31.5217391,45.6988222 C31.5217391,45.3383474 31.598506,44.981712 31.7460355,44.6528053 C32.468244,43.0496522 49.6777359,5.38536585 72.0499039,5.38536585 C94.3967688,5.38536585 112.57764,23.4701104 112.57764,45.6988222 L112.57764,77.2670314 C112.57764,90.5657795 105.988988,102.997682 94.9508623,110.530112 C94.8775264,110.582584 94.8029039,110.633349 94.7287102,110.682834 L94.6716712,110.721228 C94.6656671,110.725067 94.6605207,110.728907 94.6549455,110.732746 C87.9637948,115.212446 80.1468738,117.580488 72.0499039,117.580488 Z M36.6685472,46.2610776 L36.6685472,77.2670314 C36.6685472,88.8879718 42.4320629,99.7517018 52.0858125,106.326848 C52.1089712,106.342632 52.1312722,106.358416 52.1535732,106.374627 C52.1844515,106.397236 52.2166163,106.41814 52.2483523,106.439043 L52.3345542,106.49706 C58.1568245,110.394881 64.9796366,112.460892 72.0499039,112.460892 C79.1193134,112.460892 85.9429833,110.394454 91.7815504,106.485542 L91.9406593,106.37804 C91.9633892,106.361402 91.9904077,106.342205 92.0135664,106.326421 C101.667745,99.7508486 107.431261,88.8875452 107.431261,77.2666048 L107.431261,45.6983956 C107.431261,26.2920523 91.5589695,10.5041083 72.0499039,10.5041083 C62.3073793,10.5041083 53.2111541,20.1938422 47.296249,28.3222294 C41.5284445,36.2492627 37.6197696,44.2449782 36.6685472,46.2610776 Z"/>
    <path fill="#665A52" d="M90.0621118,45.7756098 L90.0621118,35.5157872 C90.0621118,31.7609684 86.9741633,28.7219512 83.1683837,28.7219512 L70.8378275,28.7219512 C67.0278003,28.7219512 63.9440994,31.7609684 63.9440994,35.5157872 L63.9440994,45.7756098"/>
    <path fill="#333333" d="M109.116216,47.5707317 L7.96452892,47.5707317 C6.5505393,47.5707317 5.40372671,46.5662114 5.40372671,45.3268293 C5.40372671,44.0874472 6.5505393,43.0829268 7.96452892,43.0829268 L109.116216,43.0829268 C110.530206,43.0829268 111.677019,44.0874472 111.677019,45.3268293 C111.677019,46.5662114 110.530633,47.5707317 109.116216,47.5707317 Z"/>
    <path fill="#3A88D6" d="M36.0248447,26.2045567 C36.0248447,13.7147317 46.3287404,3.5902439 59.0398876,3.5902439 L88.6662744,3.5902439 C101.377422,3.5902439 111.677019,13.7147317 111.677019,26.2045567 L111.677019,46.6731707 L91.1380058,46.6731707 L91.1380058,36.3205968 C91.1380058,32.5318336 88.0128776,29.4653429 84.1612754,29.4653429 L71.6822561,29.4653429 C67.8263552,29.4653429 64.7055257,32.5318336 64.7055257,36.3205968 L64.7055257,46.6731707 L36.0248447,46.6731707 L36.0248447,26.2045567 Z"/>
    <path fill="#333333" d="M42.1367871,0 L22.8919694,0 C10.2487954,0 0,10.1244878 0,22.6143128 L0,43.0829268 L19.2448177,43.0829268 L19.2448177,22.6143128 C19.2448177,10.1244878 29.4936132,0 42.1367871,0 Z" opacity=".44" transform="translate(36.025 3.59)"/>
    <path fill="#333333" d="M83.0204147,28.7219512 L72.9503106,28.7219512 C76.8377786,28.7219512 79.9920077,31.7609684 79.9920077,35.5157872 L79.9920077,45.7756098 L90.0621118,45.7756098 L90.0621118,35.5157872 C90.0621118,31.7609684 86.9078827,28.7219512 83.0204147,28.7219512 Z" opacity=".44"/>
    <path fill="#333333" d="M110.0043,48.4682927 L34.0950785,48.4682927 C32.6741663,48.4682927 31.5217391,47.3258865 31.5217391,45.9173299 L31.5217391,25.2936462 C31.5217391,11.3466824 42.9679526,0 57.0368277,0 L87.0621223,0 C101.131426,0 112.57764,11.3466824 112.57764,25.2936462 L112.57764,45.9173299 C112.57764,47.3258865 111.425642,48.4682927 110.0043,48.4682927 Z M36.6684178,43.3663671 L107.430961,43.3663671 L107.430961,25.2936462 C107.430961,14.1599692 98.2938908,5.10192555 87.0621223,5.10192555 L57.0368277,5.10192555 C45.805917,5.10192555 36.6684178,14.1599692 36.6684178,25.2936462 L36.6684178,43.3663671 Z"/>
    <path fill="#FFFFFF" d="M102.682043 40.3902439C101.19612 40.3902439 99.9909658 39.240047 99.9909658 37.8218847L99.9909658 24.7831813C99.9909658 21.8672375 98.9212628 19.0197833 96.978754 16.7651919 96.0350831 15.6693587 96.2005843 14.0508643 97.3483285 13.1502264 98.4965212 12.2495884 100.192797 12.4075425 101.136019 13.5029477 103.868359 16.6744433 105.372671 20.6806555 105.372671 24.7836093L105.372671 37.8218847C105.373119 39.240047 104.168414 40.3902439 102.682043 40.3902439zM91.8063062 13.4634146C91.5606984 13.4634146 91.3114112 13.4342673 91.0630438 13.373139 89.8828388 13.0832855 88.6566399 12.9359297 87.4180226 12.9359297 85.8942428 12.9359297 84.6583851 11.8481692 84.6583851 10.5069893 84.6583851 9.16580929 85.8942428 8.07804878 87.4180226 8.07804878 89.157974 8.07804878 90.8836674 8.28531837 92.5468089 8.69419001 94.0144761 9.05488767 94.8727234 10.3948532 94.4629172 11.6866447 94.1225619 12.7606412 93.0136476 13.4634146 91.8063062 13.4634146z"/>
    <g transform="translate(31.522 43.083)">
      <g fill="#665A52" transform="translate(2.573 2.627)">
        <path d="M75.480627 0L75.9052056 30.6484236C70.1026324 23.875122 66.9032831 15.1797264 66.9032831 6.17784652L66.9032831 0 75.480627 0zM9.00621118 0L9.00621118 6.17784652C9.00621118 15.1797264 5.80686188 23.875122 0 30.6484236L.428867199 0 9.00621118 0z"/>
      </g>
      <g fill="#333333">
        <path d="M2.57277433 35.902439C2.26313221 35.902439 1.95134576 35.8455205 1.65113872 35.727743.643729666 35.333254-.015010352 34.3389316.000428867199 33.2377775L.429296066 2.58935396C.449452825 1.1532564 1.59538598-.42108547e-14 3.00207039-.42108547e-14L11.5794144-.42108547e-14C13.0002514-.42108547e-14 14.1526176 1.17646163 14.1526176 2.62700773L14.1526176 8.80485425C14.1526176 18.4472861 10.728113 27.7521475 4.5095386 35.0057537 4.01119491 35.5871981 3.3001331 35.902439 2.57277433 35.902439zM5.53881988 5.25401547L5.26820467 24.5874789C7.7076013 19.7410874 9.00621118 14.3368947 9.00621118 8.80485425L9.00621118 5.25401547 5.53881988 5.25401547zM78.4788376 35.902439C77.75105 35.902439 77.040417 35.5867603 76.5412156 35.004878 70.3260722 27.7499584 66.9032831 18.445097 66.9032831 8.80485425L66.9032831 2.62700773C66.9032831 1.17646163 68.0556492 0 69.4764862 0L78.0538302 0C79.4605146 0 80.6068767 1.15369423 80.6266046 2.58979179L81.0511831 33.2382153C81.0666223 34.3393694 80.4074534 35.3336919 79.4000444 35.7281808 79.0998373 35.8455205 78.7880509 35.902439 78.4788376 35.902439zM72.0496894 5.25401547L72.0496894 8.80485425C72.0496894 14.3351434 73.3470127 19.7380226 75.7846939 24.5839762L75.5166519 5.25401547 72.0496894 5.25401547z"/>
      </g>
    </g>
    <path fill="#333333" d="M92.7639752,45.7756098 L87.7639967,45.7756098 L87.7639967,34.7503579 C87.7639967,32.7368563 86.148587,31.0989323 84.1627622,31.0989323 L70.7440701,31.0989323 C68.7582453,31.0989323 67.1428356,32.7368563 67.1428356,34.7503579 L67.1428356,45.7756098 L62.1428571,45.7756098 L62.1428571,34.7503579 C62.1428571,29.9417815 66.0011738,26.0292683 70.7440701,26.0292683 L84.1627622,26.0292683 C88.9056585,26.0292683 92.7639752,29.941359 92.7639752,34.7503579 L92.7639752,45.7756098 Z"/>
    <path fill="#FFFFFF" d="M88.3284161,184 C86.8738342,184 85.6940994,182.858959 85.6940994,181.452085 L85.6940994,161.493417 C85.6940994,154.937207 80.1791572,149.603147 73.4006211,149.603147 C66.622085,149.603147 61.1071429,154.937207 61.1071429,161.493417 L61.1071429,181.452085 C61.1071429,182.858959 59.927408,184 58.4728261,184 C57.0182442,184 55.8385093,182.858959 55.8385093,181.452085 L55.8385093,161.493417 C55.8385093,152.127282 63.7168727,144.507317 73.4006211,144.507317 C83.0843696,144.507317 90.9627329,152.127282 90.9627329,161.493417 L90.9627329,181.452085 C90.9627329,182.858959 89.7829981,184 88.3284161,184 Z"/>
    <g fill="#333333" transform="translate(0 179.512)">
      <path d="M128.746313 4.48780488L16.3516372 4.48780488C14.9345723 4.48780488 13.7852655 3.48291057 13.7852655 2.24390244 13.7852655 1.00489431 14.9345723 0 16.3516372 0L128.746313 0C130.163378 0 131.312684 1.00489431 131.312684 2.24390244 131.312684 3.48291057 130.163378 4.48780488 128.746313 4.48780488zM142.433628 4.48780488L137.728614 4.48780488C136.311549 4.48780488 135.162242 3.48291057 135.162242 2.24390244 135.162242 1.00489431 136.311549 0 137.728614 0L142.433628 0C143.850693 0 145 1.00489431 145 2.24390244 145 3.48291057 143.850693 4.48780488 142.433628 4.48780488zM7.27138643 4.48780488L2.56637168 4.48780488C1.14930678 4.48780488 0 3.48291057 0 2.24390244 0 1.00489431 1.14930678 0 2.56637168 0L7.27138643 0C8.68845133 0 9.83775811 1.00489431 9.83775811 2.24390244 9.83775811 3.48291057 8.68845133 4.48780488 7.27138643 4.48780488z"/>
    </g>
  </g>
</svg>
