<?xml version="1.0" encoding="UTF-8"?>
<svg width="16px" height="18px" viewBox="0 0 16 18" version="1.1" xmlns="http://www.w3.org/2000/svg" xmlns:xlink="http://www.w3.org/1999/xlink">
    <!-- Generator: Sketch 48.2 (47327) - http://www.bohemiancoding.com/sketch -->
    <title>@0.5xScheduling</title>
    <desc>Created with Sketch.</desc>
    <defs>
        <path d="M15,6.75 L15,4.5 C15,4.08578644 14.6642136,3.75 14.25,3.75 L12.75,3.75 L12.75,4.5 C12.75,4.91421356 12.4142136,5.25 12,5.25 C11.5857864,5.25 11.25,4.91421356 11.25,4.5 L11.25,3.75 L6.75,3.75 L6.75,4.5 C6.75,4.91421356 6.41421356,5.25 6,5.25 C5.58578644,5.25 5.25,4.91421356 5.25,4.5 L5.25,3.75 L3.75,3.75 C3.33578644,3.75 3,4.08578644 3,4.5 L3,6.75 L15,6.75 Z M15,8.25 L3,8.25 L3,15 C3,15.4142136 3.33578644,15.75 3.75,15.75 L14.25,15.75 C14.6642136,15.75 15,15.4142136 15,15 L15,8.25 Z M6.75,2.25 L11.25,2.25 L11.25,1.5 C11.25,1.08578644 11.5857864,0.75 12,0.75 C12.4142136,0.75 12.75,1.08578644 12.75,1.5 L12.75,2.25 L14.25,2.25 C15.4926407,2.25 16.5,3.25735931 16.5,4.5 L16.5,15 C16.5,16.2426407 15.4926407,17.25 14.25,17.25 L3.75,17.25 C2.50735931,17.25 1.5,16.2426407 1.5,15 L1.5,4.5 C1.5,3.25735931 2.50735931,2.25 3.75,2.25 L5.25,2.25 L5.25,1.5 C5.25,1.08578644 5.58578644,0.75 6,0.75 C6.41421356,0.75 6.75,1.08578644 6.75,1.5 L6.75,2.25 Z" id="path-1"></path>
    </defs>
    <g id="Menu-Shrink" stroke="none" stroke-width="1" fill="none" fill-rule="evenodd" transform="translate(-22.000000, -265.000000)">
        <g id="Scheduling" transform="translate(21.000000, 265.166667)">
            <mask id="mask-2" fill="white">
                <use xlink:href="#path-1"></use>
            </mask>
            <use id="Combined-Shape" fill="#000000" fill-rule="nonzero" xlink:href="#path-1"></use>
            <g id="COLOR/-black" mask="url(#mask-2)" fill="#525566">
                <rect id="Rectangle" x="0" y="0" width="18" height="18"></rect>
            </g>
        </g>
    </g>
</svg>